# xmcd
#
# Track frame offsets: 
#        150
#        14252
#        33647
#        55213
#        73706
#        98195
#        119702
#        135761
#        151520
#        181434
#        203722
#
# Disc length: 2938 seconds
#
# Revision: 0
# Processed by: cddbd v1.4PL0 Copyright (c) Steve Scherf et al.
# Submitted via: ExactAudioCopy v0.90b3
#
DISCID=8f0b780b
DTITLE=Larry Horne And Small Change  - This Night
DYEAR=2000
DGENRE=Blues
TTITLE0=No Way Baby
TTITLE1=Leaving Blues
TTITLE2=Raining in My Heart
TTITLE3=This Night
TTITLE4=Baby You Can Go
TTITLE5=Diva
TTITLE6=I've Got a Woman
TTITLE7=Tired of Crying
TTITLE8=Suicide Blues
TTITLE9=Cambria Skies
TTITLE10=Who Do Girl
EXTD=
EXTT0=
EXTT1=
EXTT2=
EXTT3=
EXTT4=
EXTT5=
EXTT6=
EXTT7=
EXTT8=
EXTT9=
EXTT10=
PLAYORDER=
